<mxfile host="app.diagrams.net" agent="Mozilla/5.0 (Windows NT 10.0; Win64; x64) AppleWebKit/537.36 (KHTML, like Gecko) Chrome/129.0.0.0 Safari/537.36" version="24.7.17">
  <diagram id="yPxyJZ8AM_hMuL3Unpa9" name="complex gitflow">
    <mxGraphModel dx="1245" dy="769" grid="1" gridSize="10" guides="1" tooltips="1" connect="1" arrows="1" fold="1" page="1" pageScale="1" pageWidth="1100" pageHeight="850" math="0" shadow="0">
      <root>
        <mxCell id="0" />
        <mxCell id="1" parent="0" />
        <mxCell id="uWUnNED6HEl2aK5fdaIb-7" value="consulta clásica" style="text;html=1;strokeColor=none;fillColor=none;align=center;verticalAlign=middle;whiteSpace=wrap;overflow=hidden;labelBackgroundColor=none;fontColor=#393C56;" parent="1" vertex="1">
          <mxGeometry x="427.25" y="226" width="80" height="30" as="geometry" />
        </mxCell>
        <mxCell id="uWUnNED6HEl2aK5fdaIb-8" value="" style="edgeStyle=orthogonalEdgeStyle;rounded=0;html=1;jettySize=auto;orthogonalLoop=1;plain-blue;endArrow=none;endFill=0;strokeWidth=4;strokeColor=#E07A5F;entryX=0;entryY=0.5;entryDx=0;entryDy=0;entryPerimeter=0;labelBackgroundColor=none;fontColor=default;fillColor=#F2CC8F;" parent="1" source="uWUnNED6HEl2aK5fdaIb-10" target="9hBKPDzoitwpIBdzFDQ7-16" edge="1">
          <mxGeometry x="292.25" y="211" as="geometry">
            <mxPoint x="442.25" y="211" as="targetPoint" />
          </mxGeometry>
        </mxCell>
        <mxCell id="uWUnNED6HEl2aK5fdaIb-9" style="edgeStyle=orthogonalEdgeStyle;curved=1;rounded=0;html=1;exitX=1;exitY=0.5;exitPerimeter=0;entryX=0;entryY=0.5;entryPerimeter=0;endArrow=none;endFill=0;jettySize=auto;orthogonalLoop=1;strokeWidth=4;fontSize=15;labelBackgroundColor=none;strokeColor=#E07A5F;fontColor=default;" parent="1" source="uWUnNED6HEl2aK5fdaIb-10" target="uWUnNED6HEl2aK5fdaIb-15" edge="1">
          <mxGeometry relative="1" as="geometry" />
        </mxCell>
        <mxCell id="uWUnNED6HEl2aK5fdaIb-10" value="" style="verticalLabelPosition=bottom;verticalAlign=top;html=1;strokeWidth=4;shape=mxgraph.flowchart.on-page_reference;plain-blue;fillColor=#F2CC8F;strokeColor=#E07A5F;labelBackgroundColor=none;fontColor=#393C56;" parent="1" vertex="1">
          <mxGeometry x="262.25" y="196" width="30" height="30" as="geometry" />
        </mxCell>
        <mxCell id="uWUnNED6HEl2aK5fdaIb-80" value="" style="edgeStyle=orthogonalEdgeStyle;curved=1;rounded=0;orthogonalLoop=1;jettySize=auto;html=1;endArrow=none;endFill=0;strokeWidth=4;entryX=0;entryY=0.5;entryDx=0;entryDy=0;entryPerimeter=0;labelBackgroundColor=none;strokeColor=#E07A5F;fontColor=default;" parent="1" source="CVed8mVqtrHm78gDxmbE-18" target="uWUnNED6HEl2aK5fdaIb-109" edge="1">
          <mxGeometry relative="1" as="geometry">
            <mxPoint x="734.4999999999995" y="211" as="targetPoint" />
          </mxGeometry>
        </mxCell>
        <mxCell id="uWUnNED6HEl2aK5fdaIb-105" style="edgeStyle=orthogonalEdgeStyle;curved=1;rounded=0;orthogonalLoop=1;jettySize=auto;html=1;exitX=1;exitY=0.5;exitDx=0;exitDy=0;exitPerimeter=0;entryX=0;entryY=0.5;entryDx=0;entryDy=0;entryPerimeter=0;endArrow=none;endFill=0;strokeWidth=4;fontFamily=Courier New;fontColor=default;labelBackgroundColor=none;strokeColor=#E07A5F;" parent="1" source="uWUnNED6HEl2aK5fdaIb-11" target="uWUnNED6HEl2aK5fdaIb-104" edge="1">
          <mxGeometry relative="1" as="geometry" />
        </mxCell>
        <mxCell id="uWUnNED6HEl2aK5fdaIb-11" value="" style="verticalLabelPosition=bottom;verticalAlign=top;html=1;strokeWidth=4;shape=mxgraph.flowchart.on-page_reference;plain-blue;strokeColor=#E07A5F;fillColor=#F2CC8F;labelBackgroundColor=none;fontColor=#393C56;" parent="1" vertex="1">
          <mxGeometry x="622.25" y="196" width="30" height="30" as="geometry" />
        </mxCell>
        <mxCell id="uWUnNED6HEl2aK5fdaIb-109" value="" style="verticalLabelPosition=bottom;verticalAlign=top;html=1;strokeWidth=4;shape=mxgraph.flowchart.on-page_reference;plain-blue;strokeColor=#E07A5F;fillColor=#F2CC8F;labelBackgroundColor=none;fontColor=#393C56;" parent="1" vertex="1">
          <mxGeometry x="980" y="196" width="30" height="30" as="geometry" />
        </mxCell>
        <mxCell id="uWUnNED6HEl2aK5fdaIb-12" value="" style="edgeStyle=orthogonalEdgeStyle;rounded=0;html=1;jettySize=auto;orthogonalLoop=1;strokeWidth=4;endArrow=none;endFill=0;labelBackgroundColor=none;strokeColor=#E07A5F;fontColor=default;" parent="1" target="uWUnNED6HEl2aK5fdaIb-10" edge="1">
          <mxGeometry x="192.25" y="211" as="geometry">
            <mxPoint x="150" y="211" as="sourcePoint" />
          </mxGeometry>
        </mxCell>
        <mxCell id="uWUnNED6HEl2aK5fdaIb-13" value="main" style="text;html=1;strokeColor=none;fillColor=none;align=center;verticalAlign=middle;whiteSpace=wrap;overflow=hidden;fontSize=14;fontStyle=1;fontFamily=Courier New;labelBackgroundColor=none;fontColor=#393C56;" parent="1" vertex="1">
          <mxGeometry x="83" y="190" width="50" height="42" as="geometry" />
        </mxCell>
        <mxCell id="uWUnNED6HEl2aK5fdaIb-14" style="edgeStyle=orthogonalEdgeStyle;curved=1;rounded=0;html=1;exitX=1;exitY=0.5;exitPerimeter=0;endArrow=none;endFill=0;jettySize=auto;orthogonalLoop=1;strokeWidth=4;fontSize=15;labelBackgroundColor=none;strokeColor=#E07A5F;fontColor=default;" parent="1" source="uWUnNED6HEl2aK5fdaIb-15" target="uWUnNED6HEl2aK5fdaIb-17" edge="1">
          <mxGeometry relative="1" as="geometry" />
        </mxCell>
        <mxCell id="uWUnNED6HEl2aK5fdaIb-15" value="" style="verticalLabelPosition=bottom;verticalAlign=top;html=1;strokeWidth=4;shape=mxgraph.flowchart.on-page_reference;plain-purple;strokeColor=#E07A5F;fillColor=#F2CC8F;labelBackgroundColor=none;fontColor=#393C56;" parent="1" vertex="1">
          <mxGeometry x="339.75" y="281" width="30" height="30" as="geometry" />
        </mxCell>
        <mxCell id="uWUnNED6HEl2aK5fdaIb-16" style="edgeStyle=orthogonalEdgeStyle;curved=1;rounded=0;html=1;exitX=1;exitY=0.5;exitPerimeter=0;entryX=0;entryY=0.5;entryPerimeter=0;endArrow=none;endFill=0;jettySize=auto;orthogonalLoop=1;strokeWidth=4;fontSize=15;labelBackgroundColor=none;strokeColor=#E07A5F;fontColor=default;" parent="1" source="uWUnNED6HEl2aK5fdaIb-17" target="uWUnNED6HEl2aK5fdaIb-19" edge="1">
          <mxGeometry relative="1" as="geometry" />
        </mxCell>
        <mxCell id="uWUnNED6HEl2aK5fdaIb-17" value="" style="verticalLabelPosition=bottom;verticalAlign=top;html=1;strokeWidth=4;shape=mxgraph.flowchart.on-page_reference;plain-purple;strokeColor=#E07A5F;fillColor=#F2CC8F;labelBackgroundColor=none;fontColor=#393C56;" parent="1" vertex="1">
          <mxGeometry x="446.75" y="281" width="30" height="30" as="geometry" />
        </mxCell>
        <mxCell id="uWUnNED6HEl2aK5fdaIb-18" style="edgeStyle=orthogonalEdgeStyle;curved=1;rounded=0;html=1;exitX=1;exitY=0.5;exitPerimeter=0;entryX=0;entryY=0.5;entryPerimeter=0;endArrow=none;endFill=0;jettySize=auto;orthogonalLoop=1;strokeWidth=4;fontSize=15;labelBackgroundColor=none;strokeColor=#E07A5F;fontColor=default;" parent="1" source="uWUnNED6HEl2aK5fdaIb-19" target="uWUnNED6HEl2aK5fdaIb-11" edge="1">
          <mxGeometry relative="1" as="geometry" />
        </mxCell>
        <mxCell id="uWUnNED6HEl2aK5fdaIb-19" value="" style="verticalLabelPosition=bottom;verticalAlign=top;html=1;strokeWidth=4;shape=mxgraph.flowchart.on-page_reference;plain-purple;strokeColor=#E07A5F;fillColor=#F2CC8F;labelBackgroundColor=none;fontColor=#393C56;" parent="1" vertex="1">
          <mxGeometry x="549.75" y="281" width="30" height="30" as="geometry" />
        </mxCell>
        <mxCell id="uWUnNED6HEl2aK5fdaIb-20" value="Base datos está&amp;nbsp;&lt;div&gt;en Docker&lt;/div&gt;" style="text;html=1;strokeColor=none;fillColor=none;align=left;verticalAlign=middle;whiteSpace=wrap;overflow=hidden;fontSize=14;fontStyle=1;fontFamily=Courier New;labelBackgroundColor=none;fontColor=#393C56;" parent="1" vertex="1">
          <mxGeometry x="120" y="281" width="92.25" height="59" as="geometry" />
        </mxCell>
        <mxCell id="uWUnNED6HEl2aK5fdaIb-71" value="" style="edgeStyle=orthogonalEdgeStyle;rounded=0;orthogonalLoop=1;jettySize=auto;html=1;endArrow=none;endFill=0;strokeWidth=4;labelBackgroundColor=none;strokeColor=#E07A5F;fontColor=default;" parent="1" source="uWUnNED6HEl2aK5fdaIb-69" target="uWUnNED6HEl2aK5fdaIb-70" edge="1">
          <mxGeometry relative="1" as="geometry" />
        </mxCell>
        <mxCell id="uWUnNED6HEl2aK5fdaIb-75" style="edgeStyle=orthogonalEdgeStyle;rounded=0;orthogonalLoop=1;jettySize=auto;html=1;entryX=1;entryY=0.5;entryDx=0;entryDy=0;entryPerimeter=0;endArrow=none;endFill=0;strokeWidth=4;curved=1;labelBackgroundColor=none;strokeColor=#E07A5F;fontColor=default;" parent="1" source="uWUnNED6HEl2aK5fdaIb-69" target="uWUnNED6HEl2aK5fdaIb-15" edge="1">
          <mxGeometry relative="1" as="geometry" />
        </mxCell>
        <mxCell id="uWUnNED6HEl2aK5fdaIb-94" style="edgeStyle=orthogonalEdgeStyle;curved=1;rounded=0;orthogonalLoop=1;jettySize=auto;html=1;exitX=1;exitY=0.5;exitDx=0;exitDy=0;exitPerimeter=0;entryX=0;entryY=0.5;entryDx=0;entryDy=0;entryPerimeter=0;endArrow=none;endFill=0;strokeWidth=4;fontFamily=Courier New;fontColor=default;labelBackgroundColor=none;strokeColor=#E07A5F;" parent="1" source="uWUnNED6HEl2aK5fdaIb-69" target="uWUnNED6HEl2aK5fdaIb-82" edge="1">
          <mxGeometry relative="1" as="geometry" />
        </mxCell>
        <mxCell id="uWUnNED6HEl2aK5fdaIb-69" value="" style="verticalLabelPosition=bottom;verticalAlign=top;html=1;strokeWidth=4;shape=mxgraph.flowchart.on-page_reference;plain-purple;strokeColor=#E07A5F;fillColor=#F2CC8F;labelBackgroundColor=none;fontColor=#393C56;" parent="1" vertex="1">
          <mxGeometry x="416.75" y="361" width="30" height="30" as="geometry" />
        </mxCell>
        <mxCell id="uWUnNED6HEl2aK5fdaIb-78" value="" style="edgeStyle=orthogonalEdgeStyle;curved=1;rounded=0;orthogonalLoop=1;jettySize=auto;html=1;endArrow=none;endFill=0;strokeWidth=4;labelBackgroundColor=none;strokeColor=#E07A5F;fontColor=default;" parent="1" source="uWUnNED6HEl2aK5fdaIb-70" target="uWUnNED6HEl2aK5fdaIb-77" edge="1">
          <mxGeometry relative="1" as="geometry" />
        </mxCell>
        <mxCell id="uWUnNED6HEl2aK5fdaIb-70" value="" style="verticalLabelPosition=bottom;verticalAlign=top;html=1;strokeWidth=4;shape=mxgraph.flowchart.on-page_reference;plain-purple;strokeColor=#E07A5F;fillColor=#F2CC8F;labelBackgroundColor=none;fontColor=#393C56;" parent="1" vertex="1">
          <mxGeometry x="514.75" y="361" width="30" height="30" as="geometry" />
        </mxCell>
        <mxCell id="uWUnNED6HEl2aK5fdaIb-96" value="" style="edgeStyle=orthogonalEdgeStyle;curved=1;rounded=0;orthogonalLoop=1;jettySize=auto;html=1;endArrow=none;endFill=0;strokeWidth=4;fontFamily=Courier New;fontColor=default;labelBackgroundColor=none;strokeColor=#E07A5F;" parent="1" source="uWUnNED6HEl2aK5fdaIb-77" target="uWUnNED6HEl2aK5fdaIb-95" edge="1">
          <mxGeometry relative="1" as="geometry" />
        </mxCell>
        <mxCell id="uWUnNED6HEl2aK5fdaIb-77" value="" style="verticalLabelPosition=bottom;verticalAlign=top;html=1;strokeWidth=4;shape=mxgraph.flowchart.on-page_reference;plain-purple;strokeColor=#E07A5F;fillColor=#F2CC8F;labelBackgroundColor=none;fontColor=#393C56;" parent="1" vertex="1">
          <mxGeometry x="594.75" y="361" width="30" height="30" as="geometry" />
        </mxCell>
        <mxCell id="uWUnNED6HEl2aK5fdaIb-108" style="edgeStyle=orthogonalEdgeStyle;curved=1;rounded=0;orthogonalLoop=1;jettySize=auto;html=1;entryX=0;entryY=0.5;entryDx=0;entryDy=0;entryPerimeter=0;endArrow=none;endFill=0;strokeWidth=4;fontFamily=Courier New;fontColor=default;labelBackgroundColor=none;strokeColor=#E07A5F;" parent="1" source="uWUnNED6HEl2aK5fdaIb-95" target="uWUnNED6HEl2aK5fdaIb-106" edge="1">
          <mxGeometry relative="1" as="geometry" />
        </mxCell>
        <mxCell id="uWUnNED6HEl2aK5fdaIb-95" value="" style="verticalLabelPosition=bottom;verticalAlign=top;html=1;strokeWidth=4;shape=mxgraph.flowchart.on-page_reference;plain-purple;strokeColor=#E07A5F;fillColor=#F2CC8F;labelBackgroundColor=none;fontColor=#393C56;" parent="1" vertex="1">
          <mxGeometry x="696.75" y="361" width="30" height="30" as="geometry" />
        </mxCell>
        <mxCell id="uWUnNED6HEl2aK5fdaIb-76" value="Connection Testing&amp;nbsp;" style="text;html=1;strokeColor=none;fillColor=none;align=left;verticalAlign=middle;whiteSpace=wrap;overflow=hidden;fontSize=14;fontStyle=1;fontFamily=Courier New;labelBackgroundColor=none;fontColor=#393C56;" parent="1" vertex="1">
          <mxGeometry x="133" y="341" width="95" height="70" as="geometry" />
        </mxCell>
        <mxCell id="uWUnNED6HEl2aK5fdaIb-82" value="" style="verticalLabelPosition=bottom;verticalAlign=top;html=1;strokeWidth=4;shape=mxgraph.flowchart.on-page_reference;plain-purple;strokeColor=#E07A5F;fillColor=#F2CC8F;labelBackgroundColor=none;fontColor=#393C56;" parent="1" vertex="1">
          <mxGeometry x="500.75" y="440" width="29.25" height="30" as="geometry" />
        </mxCell>
        <mxCell id="uWUnNED6HEl2aK5fdaIb-86" value="Docker: puertos" style="text;html=1;strokeColor=none;fillColor=none;align=left;verticalAlign=middle;whiteSpace=wrap;overflow=hidden;fontSize=14;fontStyle=1;fontFamily=Courier New;labelBackgroundColor=none;fontColor=#393C56;" parent="1" vertex="1">
          <mxGeometry x="170" y="445" width="182.5" height="20" as="geometry" />
        </mxCell>
        <mxCell id="uWUnNED6HEl2aK5fdaIb-88" value="&lt;font style=&quot;font-size: 12px;&quot;&gt;exponer puerto&lt;/font&gt;" style="text;html=1;strokeColor=none;fillColor=none;align=left;verticalAlign=middle;whiteSpace=wrap;overflow=hidden;fontSize=14;fontStyle=0;fontColor=#393C56;labelBackgroundColor=none;" parent="1" vertex="1">
          <mxGeometry x="462.62" y="480" width="134.25" height="20" as="geometry" />
        </mxCell>
        <mxCell id="uWUnNED6HEl2aK5fdaIb-90" value="&lt;font face=&quot;Lucida Console&quot;&gt;The main branch&lt;/font&gt;" style="text;html=1;strokeColor=none;fillColor=none;align=left;verticalAlign=middle;whiteSpace=wrap;overflow=hidden;fontSize=14;fontStyle=0;fontColor=#393C56;labelBackgroundColor=none;" parent="1" vertex="1">
          <mxGeometry x="88.25" y="220" width="146.75" height="20" as="geometry" />
        </mxCell>
        <mxCell id="uWUnNED6HEl2aK5fdaIb-91" value="" style="endArrow=classic;html=1;strokeWidth=1;fontFamily=Courier New;fontColor=default;labelBackgroundColor=none;strokeColor=#E07A5F;" parent="1" edge="1">
          <mxGeometry width="50" height="50" relative="1" as="geometry">
            <mxPoint x="306.75" y="454.5" as="sourcePoint" />
            <mxPoint x="456.75" y="455" as="targetPoint" />
          </mxGeometry>
        </mxCell>
        <mxCell id="uWUnNED6HEl2aK5fdaIb-92" value="" style="endArrow=classic;html=1;strokeWidth=1;fontFamily=Courier New;fontColor=default;labelBackgroundColor=none;strokeColor=#E07A5F;" parent="1" edge="1">
          <mxGeometry width="50" height="50" relative="1" as="geometry">
            <mxPoint x="230" y="374" as="sourcePoint" />
            <mxPoint x="376.75" y="374" as="targetPoint" />
          </mxGeometry>
        </mxCell>
        <mxCell id="uWUnNED6HEl2aK5fdaIb-93" value="" style="endArrow=classic;html=1;strokeWidth=1;fontFamily=Courier New;fontColor=default;labelBackgroundColor=none;strokeColor=#E07A5F;" parent="1" edge="1">
          <mxGeometry width="50" height="50" relative="1" as="geometry">
            <mxPoint x="216.75" y="296" as="sourcePoint" />
            <mxPoint x="296.75" y="296" as="targetPoint" />
          </mxGeometry>
        </mxCell>
        <mxCell id="CVed8mVqtrHm78gDxmbE-27" value="" style="edgeStyle=orthogonalEdgeStyle;curved=1;rounded=0;orthogonalLoop=1;jettySize=auto;html=1;strokeColor=#E07A5F;fontColor=#393C56;fillColor=#F2CC8F;" edge="1" parent="1" source="uWUnNED6HEl2aK5fdaIb-101" target="uWUnNED6HEl2aK5fdaIb-116">
          <mxGeometry relative="1" as="geometry" />
        </mxCell>
        <mxCell id="CVed8mVqtrHm78gDxmbE-5" value="" style="edgeStyle=orthogonalEdgeStyle;rounded=0;orthogonalLoop=1;jettySize=auto;html=1;strokeColor=#E07A5F;fontColor=#393C56;fillColor=#F2CC8F;" edge="1" parent="1" source="uWUnNED6HEl2aK5fdaIb-101" target="uWUnNED6HEl2aK5fdaIb-116">
          <mxGeometry relative="1" as="geometry" />
        </mxCell>
        <mxCell id="uWUnNED6HEl2aK5fdaIb-101" value="&lt;font face=&quot;Lucida Console&quot;&gt;Guardar tabla&lt;/font&gt;" style="text;html=1;strokeColor=none;fillColor=none;align=center;verticalAlign=middle;whiteSpace=wrap;overflow=hidden;fontSize=14;labelBackgroundColor=none;fontColor=#393C56;" parent="1" vertex="1">
          <mxGeometry x="600" y="170" width="119.75" height="20" as="geometry" />
        </mxCell>
        <mxCell id="CVed8mVqtrHm78gDxmbE-3" value="" style="edgeStyle=orthogonalEdgeStyle;rounded=0;orthogonalLoop=1;jettySize=auto;html=1;strokeColor=#E07A5F;fontColor=#393C56;fillColor=#F2CC8F;" edge="1" parent="1" source="uWUnNED6HEl2aK5fdaIb-103" target="9hBKPDzoitwpIBdzFDQ7-61">
          <mxGeometry relative="1" as="geometry" />
        </mxCell>
        <mxCell id="uWUnNED6HEl2aK5fdaIb-103" value="&lt;font face=&quot;Lucida Console&quot;&gt;Conexión SQL&lt;/font&gt;" style="text;html=1;strokeColor=none;fillColor=none;align=center;verticalAlign=middle;whiteSpace=wrap;overflow=hidden;fontSize=14;labelBackgroundColor=none;fontColor=#393C56;" parent="1" vertex="1">
          <mxGeometry x="222" y="170" width="117.75" height="20" as="geometry" />
        </mxCell>
        <mxCell id="uWUnNED6HEl2aK5fdaIb-107" value="" style="edgeStyle=orthogonalEdgeStyle;curved=1;rounded=0;orthogonalLoop=1;jettySize=auto;html=1;endArrow=none;endFill=0;strokeWidth=4;fontFamily=Courier New;fontColor=default;labelBackgroundColor=none;strokeColor=#E07A5F;" parent="1" source="uWUnNED6HEl2aK5fdaIb-104" target="uWUnNED6HEl2aK5fdaIb-106" edge="1">
          <mxGeometry relative="1" as="geometry" />
        </mxCell>
        <mxCell id="uWUnNED6HEl2aK5fdaIb-104" value="" style="verticalLabelPosition=bottom;verticalAlign=top;html=1;strokeWidth=4;shape=mxgraph.flowchart.on-page_reference;plain-purple;strokeColor=#E07A5F;fillColor=#F2CC8F;labelBackgroundColor=none;fontColor=#393C56;" parent="1" vertex="1">
          <mxGeometry x="696.75" y="281" width="30" height="30" as="geometry" />
        </mxCell>
        <mxCell id="uWUnNED6HEl2aK5fdaIb-106" value="" style="verticalLabelPosition=bottom;verticalAlign=top;html=1;strokeWidth=4;shape=mxgraph.flowchart.on-page_reference;plain-purple;strokeColor=#E07A5F;fillColor=#F2CC8F;labelBackgroundColor=none;fontColor=#393C56;" parent="1" vertex="1">
          <mxGeometry x="786.75" y="281" width="30" height="30" as="geometry" />
        </mxCell>
        <mxCell id="uWUnNED6HEl2aK5fdaIb-116" value="&lt;font face=&quot;Lucida Console&quot;&gt;Migrar a PostgreSQL&lt;/font&gt;" style="text;html=1;strokeColor=none;fillColor=none;align=center;verticalAlign=middle;whiteSpace=wrap;overflow=hidden;fontSize=14;labelBackgroundColor=none;fontColor=#393C56;" parent="1" vertex="1">
          <mxGeometry x="816.75" y="170" width="187.75" height="20" as="geometry" />
        </mxCell>
        <mxCell id="uWUnNED6HEl2aK5fdaIb-117" value="" style="endArrow=classic;html=1;strokeWidth=1;fontFamily=Courier New;fontColor=default;exitX=0.5;exitY=0;exitDx=0;exitDy=0;labelBackgroundColor=none;strokeColor=#E07A5F;" parent="1" source="fSnZ5vnYTslC5NarKmr_-5" edge="1">
          <mxGeometry width="50" height="50" relative="1" as="geometry">
            <mxPoint x="711.25" y="635.5" as="sourcePoint" />
            <mxPoint x="711.25" y="404" as="targetPoint" />
          </mxGeometry>
        </mxCell>
        <mxCell id="fSnZ5vnYTslC5NarKmr_-4" value="&lt;span style=&quot;text-align: center&quot;&gt;commit alembic&lt;/span&gt;" style="text;html=1;strokeColor=none;fillColor=none;align=left;verticalAlign=middle;whiteSpace=wrap;overflow=hidden;fontSize=12;fontStyle=0;fontColor=#393C56;labelBackgroundColor=none;" parent="1" vertex="1">
          <mxGeometry x="761.51" y="311" width="96.62" height="48" as="geometry" />
        </mxCell>
        <mxCell id="fSnZ5vnYTslC5NarKmr_-5" value="&lt;div style=&quot;&quot;&gt;Aquí puedo:&lt;/div&gt;&lt;div style=&quot;&quot;&gt;&lt;ul&gt;&lt;li&gt;Conectarme desde la consola a base de datos&amp;nbsp;&lt;/li&gt;&lt;li&gt;Ver visualmente base de datos sin t&lt;/li&gt;&lt;/ul&gt;&lt;/div&gt;" style="text;html=1;strokeColor=none;fillColor=none;align=left;verticalAlign=middle;whiteSpace=wrap;overflow=hidden;fontSize=12;fontStyle=0;fontColor=#393C56;labelBackgroundColor=none;" parent="1" vertex="1">
          <mxGeometry x="565.38" y="510" width="292.75" height="70" as="geometry" />
        </mxCell>
        <mxCell id="fSnZ5vnYTslC5NarKmr_-8" value="&lt;h1&gt;&lt;span style=&quot;text-align: center;&quot;&gt;&lt;font style=&quot;font-size: 18px;&quot;&gt;Inicio&lt;/font&gt;&lt;/span&gt;&lt;/h1&gt;" style="text;html=1;strokeColor=none;fillColor=none;align=left;verticalAlign=middle;whiteSpace=wrap;overflow=hidden;fontSize=11;fontStyle=0;fontColor=#393C56;labelBackgroundColor=none;" parent="1" vertex="1">
          <mxGeometry x="88.75" y="150" width="120" height="38" as="geometry" />
        </mxCell>
        <UserObject label="&lt;h1&gt;DataConnect Pro&lt;/h1&gt;" link="https://nvie.com/posts/a-successful-git-branching-model/" id="9hBKPDzoitwpIBdzFDQ7-2">
          <mxCell style="text;whiteSpace=wrap;html=1;fontStyle=1;fontSize=16;labelBackgroundColor=none;fontColor=#393C56;" parent="1" vertex="1">
            <mxGeometry x="83" y="60" width="427.75" height="60" as="geometry" />
          </mxCell>
        </UserObject>
        <mxCell id="9hBKPDzoitwpIBdzFDQ7-14" value="" style="endArrow=classic;html=1;strokeWidth=1;fontFamily=Courier New;fontColor=default;labelBackgroundColor=none;strokeColor=#E07A5F;" parent="1" edge="1">
          <mxGeometry width="50" height="50" relative="1" as="geometry">
            <mxPoint x="864" y="380" as="sourcePoint" />
            <mxPoint x="860" y="230" as="targetPoint" />
          </mxGeometry>
        </mxCell>
        <mxCell id="9hBKPDzoitwpIBdzFDQ7-15" value="&lt;span style=&quot;text-align: center&quot;&gt;Se puede hacer &#39;manual&#39; o haciendo importación&lt;/span&gt;" style="text;html=1;strokeColor=none;fillColor=none;align=left;verticalAlign=middle;whiteSpace=wrap;overflow=hidden;fontSize=12;fontStyle=0;fontColor=#393C56;labelBackgroundColor=none;" parent="1" vertex="1">
          <mxGeometry x="860" y="384" width="150" height="51" as="geometry" />
        </mxCell>
        <mxCell id="9hBKPDzoitwpIBdzFDQ7-21" value="" style="edgeStyle=orthogonalEdgeStyle;rounded=0;orthogonalLoop=1;jettySize=auto;html=1;fontSize=15;endArrow=none;endFill=0;strokeWidth=4;entryX=0;entryY=0.5;entryDx=0;entryDy=0;entryPerimeter=0;labelBackgroundColor=none;strokeColor=#E07A5F;fontColor=default;" parent="1" source="9hBKPDzoitwpIBdzFDQ7-16" target="uWUnNED6HEl2aK5fdaIb-11" edge="1">
          <mxGeometry relative="1" as="geometry">
            <mxPoint x="560.25" y="211" as="targetPoint" />
          </mxGeometry>
        </mxCell>
        <mxCell id="9hBKPDzoitwpIBdzFDQ7-16" value="" style="verticalLabelPosition=bottom;verticalAlign=top;html=1;strokeWidth=4;shape=mxgraph.flowchart.on-page_reference;plain-blue;strokeColor=#E07A5F;fillColor=#F2CC8F;labelBackgroundColor=none;fontColor=#393C56;" parent="1" vertex="1">
          <mxGeometry x="468.5" y="196" width="30" height="30" as="geometry" />
        </mxCell>
        <mxCell id="CVed8mVqtrHm78gDxmbE-4" value="" style="edgeStyle=orthogonalEdgeStyle;rounded=0;orthogonalLoop=1;jettySize=auto;html=1;strokeColor=#E07A5F;fontColor=#393C56;fillColor=#F2CC8F;" edge="1" parent="1" source="9hBKPDzoitwpIBdzFDQ7-61" target="uWUnNED6HEl2aK5fdaIb-101">
          <mxGeometry relative="1" as="geometry" />
        </mxCell>
        <mxCell id="9hBKPDzoitwpIBdzFDQ7-61" value="&lt;font face=&quot;Lucida Console&quot;&gt;Creación tablas&lt;/font&gt;" style="text;html=1;strokeColor=none;fillColor=none;align=center;verticalAlign=middle;whiteSpace=wrap;overflow=hidden;fontSize=14;labelBackgroundColor=none;fontColor=#393C56;" parent="1" vertex="1">
          <mxGeometry x="428.5" y="170" width="141.5" height="20" as="geometry" />
        </mxCell>
        <mxCell id="CVed8mVqtrHm78gDxmbE-6" value="postgres&lt;span style=&quot;color: rgba(0, 0, 0, 0); font-family: monospace; font-size: 0px; text-align: start; text-wrap: nowrap;&quot;&gt;%3CmxGraphModel%3E%3Croot%3E%3CmxCell%20id%3D%220%22%2F%3E%3CmxCell%20id%3D%221%22%20parent%3D%220%22%2F%3E%3CmxCell%20id%3D%222%22%20value%3D%22consulta%20cl%C3%A1sica%22%20style%3D%22text%3Bhtml%3D1%3BstrokeColor%3Dnone%3BfillColor%3Dnone%3Balign%3Dcenter%3BverticalAlign%3Dmiddle%3BwhiteSpace%3Dwrap%3Boverflow%3Dhidden%3BlabelBackgroundColor%3Dnone%3BfontColor%3D%23393C56%3B%22%20vertex%3D%221%22%20parent%3D%221%22%3E%3CmxGeometry%20x%3D%22427.25%22%20y%3D%22226%22%20width%3D%2280%22%20height%3D%2230%22%20as%3D%22geometry%22%2F%3E%3C%2FmxCell%3E%3C%2Froot%3E%3C%2FmxGraphModel%3E&lt;/span&gt;" style="text;html=1;strokeColor=none;fillColor=none;align=center;verticalAlign=middle;whiteSpace=wrap;overflow=hidden;labelBackgroundColor=none;fontColor=#393C56;" vertex="1" parent="1">
          <mxGeometry x="422.63" y="320" width="80" height="30" as="geometry" />
        </mxCell>
        <mxCell id="CVed8mVqtrHm78gDxmbE-7" value="backend" style="text;html=1;strokeColor=none;fillColor=none;align=center;verticalAlign=middle;whiteSpace=wrap;overflow=hidden;labelBackgroundColor=none;fontColor=#393C56;" vertex="1" parent="1">
          <mxGeometry x="524.75" y="320" width="80" height="30" as="geometry" />
        </mxCell>
        <mxCell id="CVed8mVqtrHm78gDxmbE-8" value="migracion" style="text;html=1;strokeColor=none;fillColor=none;align=center;verticalAlign=middle;whiteSpace=wrap;overflow=hidden;labelBackgroundColor=none;fontColor=#393C56;" vertex="1" parent="1">
          <mxGeometry x="670" y="320" width="80" height="30" as="geometry" />
        </mxCell>
        <mxCell id="CVed8mVqtrHm78gDxmbE-10" value="tablas en sqlite" style="text;html=1;strokeColor=none;fillColor=none;align=center;verticalAlign=middle;whiteSpace=wrap;overflow=hidden;labelBackgroundColor=none;fontColor=#393C56;" vertex="1" parent="1">
          <mxGeometry x="388.5" y="405" width="80" height="30" as="geometry" />
        </mxCell>
        <mxCell id="CVed8mVqtrHm78gDxmbE-11" value="container db" style="text;html=1;strokeColor=none;fillColor=none;align=center;verticalAlign=middle;whiteSpace=wrap;overflow=hidden;labelBackgroundColor=none;fontColor=#393C56;" vertex="1" parent="1">
          <mxGeometry x="489.75" y="405" width="80" height="30" as="geometry" />
        </mxCell>
        <mxCell id="CVed8mVqtrHm78gDxmbE-15" style="edgeStyle=orthogonalEdgeStyle;curved=1;rounded=0;html=1;exitX=1;exitY=0.5;exitPerimeter=0;endArrow=none;endFill=0;jettySize=auto;orthogonalLoop=1;strokeWidth=4;fontSize=15;labelBackgroundColor=none;strokeColor=#E07A5F;fontColor=default;exitDx=0;exitDy=0;entryX=0.5;entryY=1;entryDx=0;entryDy=0;entryPerimeter=0;" edge="1" parent="1" source="uWUnNED6HEl2aK5fdaIb-82" target="uWUnNED6HEl2aK5fdaIb-77">
          <mxGeometry relative="1" as="geometry">
            <mxPoint x="537.25" y="460" as="sourcePoint" />
            <mxPoint x="610" y="400" as="targetPoint" />
          </mxGeometry>
        </mxCell>
        <mxCell id="CVed8mVqtrHm78gDxmbE-17" value="conexión PostgreSQL" style="text;html=1;strokeColor=none;fillColor=none;align=center;verticalAlign=middle;whiteSpace=wrap;overflow=hidden;labelBackgroundColor=none;fontColor=#393C56;" vertex="1" parent="1">
          <mxGeometry x="597.25" y="405" width="80" height="30" as="geometry" />
        </mxCell>
        <mxCell id="CVed8mVqtrHm78gDxmbE-19" value="" style="edgeStyle=orthogonalEdgeStyle;curved=1;rounded=0;orthogonalLoop=1;jettySize=auto;html=1;endArrow=none;endFill=0;strokeWidth=4;entryX=0;entryY=0.5;entryDx=0;entryDy=0;entryPerimeter=0;labelBackgroundColor=none;strokeColor=#E07A5F;fontColor=default;" edge="1" parent="1" source="uWUnNED6HEl2aK5fdaIb-11" target="CVed8mVqtrHm78gDxmbE-18">
          <mxGeometry relative="1" as="geometry">
            <mxPoint x="880" y="211" as="targetPoint" />
            <mxPoint x="652" y="211" as="sourcePoint" />
          </mxGeometry>
        </mxCell>
        <mxCell id="CVed8mVqtrHm78gDxmbE-18" value="" style="verticalLabelPosition=bottom;verticalAlign=top;html=1;strokeWidth=4;shape=mxgraph.flowchart.on-page_reference;plain-blue;strokeColor=#E07A5F;fillColor=#F2CC8F;labelBackgroundColor=none;fontColor=#393C56;" vertex="1" parent="1">
          <mxGeometry x="840" y="196" width="30" height="30" as="geometry" />
        </mxCell>
        <mxCell id="CVed8mVqtrHm78gDxmbE-28" style="edgeStyle=orthogonalEdgeStyle;curved=1;rounded=0;orthogonalLoop=1;jettySize=auto;html=1;exitX=0.145;exitY=0.855;exitDx=0;exitDy=0;exitPerimeter=0;entryX=0;entryY=0.5;entryDx=0;entryDy=0;entryPerimeter=0;endArrow=none;endFill=0;strokeWidth=4;fontFamily=Courier New;fontColor=default;labelBackgroundColor=none;strokeColor=#E07A5F;" edge="1" parent="1" source="CVed8mVqtrHm78gDxmbE-18">
          <mxGeometry relative="1" as="geometry">
            <mxPoint x="771.25" y="209" as="sourcePoint" />
            <mxPoint x="816.25" y="294" as="targetPoint" />
          </mxGeometry>
        </mxCell>
        <mxCell id="CVed8mVqtrHm78gDxmbE-29" value="&lt;h1&gt;&lt;span style=&quot;text-align: center;&quot;&gt;&lt;font style=&quot;font-size: 18px;&quot;&gt;FIN&lt;/font&gt;&lt;/span&gt;&lt;/h1&gt;" style="text;html=1;strokeColor=none;fillColor=none;align=left;verticalAlign=middle;whiteSpace=wrap;overflow=hidden;fontSize=11;fontStyle=0;fontColor=#393C56;labelBackgroundColor=none;" vertex="1" parent="1">
          <mxGeometry x="980" y="149" width="120" height="38" as="geometry" />
        </mxCell>
      </root>
    </mxGraphModel>
  </diagram>
</mxfile>
